<svg width="708" height="319" viewBox="0 0 708 319" fill="none" xmlns="http://www.w3.org/2000/svg">
<g clip-path="url(#clip0_32_4194)">
<path d="M100.297 319H5.40332V82.0841C5.40332 82.0841 25.5118 30.8602 66.9573 15.4935C108.403 0.126803 231.045 0.0751419 231.045 0.0751419L224.888 319H100.297Z" fill="#8CCDDD"/>
<path d="M100.298 319H361.797V79.5246C361.797 79.5246 344.259 0 224.893 0C131.717 0 102.943 80.8067 102.943 80.8067L100.298 319Z" fill="#D9E8F4"/>
<path d="M76.2544 310.359H35.0254V89.8614C35.0254 78.9422 43.8982 70.0941 54.842 70.0941H56.4377C67.3816 70.0941 76.2496 78.9469 76.2496 89.8614V310.359H76.2544Z" fill="#D9E8F4"/>
<path d="M236.001 283.101C289.104 283.101 332.152 227.786 332.152 159.552C332.152 91.3175 289.104 36.0028 236.001 36.0028C182.899 36.0028 139.851 91.3175 139.851 159.552C139.851 227.786 182.899 283.101 236.001 283.101Z" fill="#8CCDDD"/>
<path d="M236.778 234.319C271.028 234.319 298.793 198.643 298.793 154.635C298.793 110.626 271.028 74.9503 236.778 74.9503C202.528 74.9503 174.763 110.626 174.763 154.635C174.763 198.643 202.528 234.319 236.778 234.319Z" fill="#D9E8F4"/>
<path d="M211.266 227.514C231.652 227.514 248.179 194.885 248.179 154.635C248.179 114.384 231.652 81.7554 211.266 81.7554C190.88 81.7554 174.354 114.384 174.354 154.635C174.354 194.885 190.88 227.514 211.266 227.514Z" fill="#CCD9E2"/>
<path d="M314.6 239.49H707.689C707.689 239.49 713.352 257.829 675.987 273.421C594.716 307.334 226.625 261.187 226.625 261.187L314.6 239.49Z" fill="#CCD9E2"/>
<path d="M226.63 239.49H619.719C619.719 239.49 624.907 256.739 588.018 273.421C551.129 290.098 226.63 261.187 226.63 261.187V239.49Z" fill="#D9E8F4"/>
<path d="M226.63 261.187V319H549.42L542.006 283.101L226.63 261.187Z" fill="#CCD9E2"/>
<path d="M549.42 319H469.381L463.008 283.101L542.576 285.867L549.42 319Z" fill="#B5C0C6"/>
<path d="M226.63 291.845L469.24 295.865L465.884 290.094L226.63 285.867V291.845Z" fill="#B5C0C6"/>
<path d="M100.298 319H0V289.558C0 285.994 2.89483 283.101 6.47218 283.101H100.298V319Z" fill="#676D70"/>
<path opacity="0.38" d="M158.97 99.0147C156.137 105.402 153.863 112.31 154.588 119.256C154.805 121.318 155.44 123.577 157.224 124.634C159.027 125.7 161.442 125.113 163.051 123.774C164.657 122.436 165.622 120.496 166.483 118.594C171.825 106.778 174.941 93.9426 181.508 82.7557C186.695 73.9217 193.972 66.3229 202.581 60.753C204.492 59.5178 206.766 57.6298 206.017 55.4836C205.179 53.0837 201.673 53.3984 199.315 54.3611C180.242 62.1431 167.048 80.8208 158.97 99.0147Z" fill="white"/>
<path opacity="0.38" d="M212.801 52.7737C213.648 53.3561 214.782 53.2246 215.799 53.0696C221.513 52.1961 227.232 51.3272 232.947 50.4584C234.105 50.2799 235.295 50.0921 236.307 49.5003C237.319 48.9086 238.12 47.8049 237.997 46.6402C237.88 45.5037 236.915 44.5973 235.837 44.2074C234.759 43.8176 233.582 43.8552 232.434 43.9069C227.501 44.1464 221 44.0102 216.397 45.9827C214.41 46.8328 209.59 50.5711 212.801 52.7737Z" fill="white"/>
<path d="M120.029 81.7507H109.387V96.4787H120.029V81.7507Z" fill="#8CCDDD"/>
<path d="M138.392 81.7507H127.749V96.4787H138.392V81.7507Z" fill="#8CCDDD"/>
<path d="M120.029 104.585H109.387V119.313H120.029V104.585Z" fill="#8CCDDD"/>
<path d="M226.63 319H94.3623V290.756C94.3623 286.529 97.7984 283.105 102.03 283.105H226.63V319Z" fill="#878E91"/>
<path d="M139.851 156.546H102.101V166.812H139.851V156.546Z" fill="#878E91"/>
<path d="M361.797 154.367H332.157V164.633H361.797V154.367Z" fill="#878E91"/>
</g>
<defs>
<clipPath id="clip0_32_4194">
<rect width="708" height="319" fill="white"/>
</clipPath>
</defs>
</svg>
