<svg width="62" height="62" viewBox="0 0 62 62" fill="none" xmlns="http://www.w3.org/2000/svg">
<path fill-rule="evenodd" clip-rule="evenodd" d="M1.92891 41.899C1.79912 41.5521 1.67575 41.2034 1.55879 40.8531L40.8531 1.55879C41.2034 1.67575 41.5521 1.79912 41.899 1.92891L1.92891 41.899ZM3.37558 45.1723C3.21425 44.858 3.05865 44.5416 2.90876 44.2231L44.2231 2.90876C44.5416 3.05865 44.858 3.21425 45.1723 3.37558L3.37558 45.1723ZM5.12006 48.1478C4.93057 47.8625 4.74629 47.5748 4.56724 47.2846L47.2847 4.56724C47.5748 4.7463 47.8625 4.93057 48.1479 5.12006L5.12006 48.1478ZM7.13625 50.8517C6.92067 50.5931 6.70989 50.3318 6.50393 50.068L50.068 6.50395C50.3318 6.70985 50.5931 6.92063 50.8517 7.13628L7.13625 50.8517ZM9.40863 53.2993C9.28901 53.1834 9.17005 53.0664 9.05181 52.9482C8.93363 52.8299 8.81652 52.711 8.70065 52.5914L52.5914 8.7006C52.711 8.81654 52.8299 8.93359 52.9482 9.05183C53.0664 9.17007 53.1835 9.28897 53.2994 9.40866L9.40863 53.2993ZM11.932 55.496C11.6682 55.2901 11.4069 55.0793 11.1483 54.8637L54.8637 11.1483C55.0794 11.4069 55.2902 11.6682 55.4961 11.932L11.932 55.496ZM14.7154 57.4328C14.4252 57.2537 14.1375 57.0694 13.8522 56.8799L56.8799 13.8521C57.0694 14.1374 57.2537 14.4252 57.4328 14.7153L14.7154 57.4328ZM17.7769 59.0912C17.4584 58.9413 17.142 58.7857 16.8277 58.6244L58.6244 16.8277C58.7857 17.142 58.9413 17.4584 59.0913 17.7769L17.7769 59.0912ZM21.1469 60.4412C20.7966 60.3242 20.4479 60.2008 20.101 60.0711L60.0711 20.1011C60.2009 20.4479 60.3243 20.7966 60.4412 21.1469L21.1469 60.4412ZM24.8756 61.4326C24.4875 61.3548 24.1007 61.2697 23.7152 61.177L61.177 23.7152C61.2697 24.1006 61.3549 24.4875 61.4326 24.8756L24.8756 61.4326ZM29.2726 61.9916C28.8337 61.9672 28.3952 61.9337 27.9574 61.8908L61.8909 27.9574C61.9337 28.3952 61.9673 28.8337 61.9916 29.2726L29.2726 61.9916ZM34.099 61.8853C33.5896 61.9361 33.0792 61.9743 32.5683 62L62 32.5682C61.9743 33.0792 61.9361 33.5896 61.8853 34.099L34.099 61.8853ZM39.9885 60.7158C39.3495 60.9084 38.7055 61.0801 38.0576 61.2307L61.2307 38.0576C61.0801 38.7054 60.9085 39.3495 60.7158 39.9885L39.9885 60.7158ZM49.4822 55.9421C48.2427 56.863 46.9501 57.6796 45.6165 58.3918L58.3919 45.6165C57.6796 46.9501 56.8631 48.2427 55.9422 49.4821L49.4822 55.9421ZM38.2848 0.823002L0.823004 38.2848C0.730343 37.8993 0.645144 37.5124 0.567419 37.1244L37.1244 0.567417C37.5125 0.645142 37.8994 0.730342 38.2848 0.823002ZM32.7274 0.00840658C33.1663 0.032722 33.6048 0.0663127 34.0426 0.109179L0.10918 34.0426C0.0663161 33.6048 0.0327214 33.1663 0.00840856 32.7274L32.7274 0.00840658ZM27.901 0.114755C28.4104 0.0639407 28.9208 0.025689 29.4318 0L0 29.4317C0.0256857 28.9208 0.0639401 28.4104 0.114755 27.901L27.901 0.114755ZM22.0115 1.28422C22.6505 1.09153 23.2945 0.919887 23.9424 0.769274L0.769269 23.9424C0.919882 23.2945 1.09153 22.6505 1.28422 22.0115L22.0115 1.28422ZM12.5178 6.05784C13.7573 5.13697 15.0499 4.32042 16.3835 3.60817L3.60817 16.3835C4.32042 15.0499 5.13698 13.7573 6.05785 12.5178L12.5178 6.05784Z" fill="white"/>
</svg>
